<svg width="24" height="13" viewBox="0 0 24 13" fill="none" xmlns="http://www.w3.org/2000/svg">
<path d="M6.2061 12.4772C6.29983 12.3842 6.37422 12.2736 6.42499 12.1517C6.47576 12.0299 6.5019 11.8992 6.5019 11.7672C6.5019 11.6351 6.47576 11.5044 6.42499 11.3826C6.37422 11.2607 6.29983 11.1501 6.2061 11.0572L2.5761 7.42716L22.9961 7.42716C23.2613 7.42716 23.5157 7.3218 23.7032 7.13427C23.8907 6.94673 23.9961 6.69238 23.9961 6.42716V6.42716C23.9961 6.16194 23.8907 5.90759 23.7032 5.72005C23.5157 5.53252 23.2613 5.42716 22.9961 5.42716L2.5861 5.42716L6.2061 1.80716C6.32329 1.72145 6.42042 1.61124 6.49072 1.48421C6.56102 1.35717 6.60282 1.21635 6.6132 1.07153C6.62359 0.926705 6.60231 0.781359 6.55086 0.645591C6.4994 0.509822 6.41899 0.386888 6.31523 0.285331C6.21146 0.183774 6.08683 0.106031 5.94999 0.0575042C5.81314 0.00897793 5.66737 -0.00916754 5.52281 0.00432922C5.37825 0.017826 5.23835 0.062641 5.11286 0.13566C4.98736 0.208678 4.87927 0.30815 4.7961 0.427159L0.8761 4.34716C0.314298 4.90966 -0.0012591 5.67216 -0.00125913 6.46716C-0.00125917 7.26216 0.314298 8.02466 0.8761 8.58716L4.7961 12.5072C4.9874 12.6895 5.24308 12.7887 5.50729 12.783C5.77149 12.7774 6.02273 12.6675 6.2061 12.4772Z" fill="#022759"/>
</svg>
