<svg width="10" height="10" viewBox="0 0 10 10" fill="none" xmlns="http://www.w3.org/2000/svg">
<path d="M4.05415 0.455916C4.29633 -0.151986 5.15679 -0.151986 5.39898 0.455916C5.57285 0.892365 6.10999 1.05008 6.49223 0.776925C7.02463 0.39646 7.74849 0.86166 7.62357 1.50399C7.53389 1.96516 7.90049 2.38825 8.36973 2.3651C9.0233 2.33287 9.38075 3.11557 8.92839 3.5884C8.60361 3.92787 8.68328 4.48199 9.09055 4.71621C9.65779 5.04245 9.53534 5.89415 8.89916 6.04735C8.4424 6.15735 8.20985 6.66658 8.42583 7.0838C8.72665 7.66492 8.16317 8.31521 7.54515 8.10015C7.10144 7.94575 6.63049 8.24841 6.58662 8.71616C6.52551 9.36767 5.69991 9.61009 5.29627 9.09505C5.00647 8.72526 4.44665 8.72526 4.15686 9.09505C3.75322 9.61009 2.92761 9.36767 2.8665 8.71616C2.82263 8.24841 2.35168 7.94575 1.90797 8.10015C1.28995 8.31521 0.726471 7.66492 1.0273 7.0838C1.24328 6.66658 1.01072 6.15735 0.553968 6.04735C-0.0822129 5.89415 -0.204669 5.04245 0.362579 4.71621C0.76984 4.48199 0.84951 3.92787 0.524734 3.5884C0.0723734 3.11557 0.429822 2.33287 1.0834 2.3651C1.55264 2.38825 1.91924 1.96516 1.82955 1.50399C1.70463 0.86166 2.4285 0.396459 2.96089 0.776925C3.34313 1.05008 3.88027 0.892365 4.05415 0.455916Z" fill="white"/>
</svg>
